<?xml version="1.0" encoding="utf-8"?>
<!-- Generator: Adobe Illustrator 22.0.1, SVG Export Plug-In . SVG Version: 6.00 Build 0)  -->
<svg version="1.1" id="圖層_1" xmlns="http://www.w3.org/2000/svg" xmlns:xlink="http://www.w3.org/1999/xlink" x="0px" y="0px"
	 viewBox="0 0 40 40" enable-background="new 0 0 40 40" xml:space="preserve">
<g id="圖層_1_1_">
</g>
<g id="圖層_2_1_">
</g>
<g>
	<path fill="#4D4D4D" d="M25,9h-2c0-1.291-0.563-2-0.75-2h-4.5C17.563,7,17,7.709,17,9h-2c0-2.243,1.208-4,2.75-4h4.5
		C23.792,5,25,6.757,25,9z"/>
</g>
<g>
	<path fill="#4D4D4D" d="M30,11H10c-0.552,0-1-0.448-1-1s0.448-1,1-1h20c0.553,0,1,0.448,1,1S30.553,11,30,11z"/>
</g>
<path fill="#4D4D4D" d="M29.158,12H10.842C10.379,12,10,12.396,10,12.88l1,21.24c0,0.484,0.379,0.88,0.842,0.88h16.316
	C28.621,35,29,34.604,29,34.12l1-21.24C30,12.396,29.621,12,29.158,12z M15.75,32c0,0.553-0.448,1-1,1s-1-0.447-1-1V15
	c0-0.552,0.448-1,1-1s1,0.448,1,1V32z M21,32c0,0.553-0.448,1-1,1s-1-0.447-1-1V15c0-0.552,0.448-1,1-1s1,0.448,1,1V32z M26.25,32
	c0,0.553-0.447,1-1,1s-1-0.447-1-1V15c0-0.552,0.447-1,1-1s1,0.448,1,1V32z"/>
</svg>
