<?xml version="1.0" encoding="utf-8"?>
<!-- Generator: Adobe Illustrator 22.0.1, SVG Export Plug-In . SVG Version: 6.00 Build 0)  -->
<svg version="1.1" xmlns="http://www.w3.org/2000/svg" xmlns:xlink="http://www.w3.org/1999/xlink" x="0px" y="0px"
	 viewBox="0 0 40 40" enable-background="new 0 0 40 40" xml:space="preserve">
<g id="圖層_1">
</g>
<g id="圖層_2">
</g>
<g id="圖層_3">
	<g>
		<path fill="#4D4D4D" d="M25,9h-2c0-1.291-0.563-2-0.75-2h-4.5C17.563,7,17,7.709,17,9h-2c0-2.243,1.208-4,2.75-4h4.5
			C23.792,5,25,6.757,25,9z"/>
	</g>
	<g>
		<path fill="#4D4D4D" d="M30,11H10c-0.552,0-1-0.448-1-1s0.448-1,1-1h20c0.553,0,1,0.448,1,1S30.553,11,30,11z"/>
	</g>
	<path fill="#4D4D4D" d="M28.158,35H11.842C11.379,35,11,34.604,11,34.12l-1-21.24c0-0.484,0.379-0.88,0.842-0.88h18.316
		C29.621,12,30,12.396,30,12.88l-1,21.24C29,34.604,28.621,35,28.158,35z"/>
	<g>
		<path fill="#FFFFFF" d="M14.75,33c-0.552,0-1-0.447-1-1V15c0-0.552,0.448-1,1-1s1,0.448,1,1v17C15.75,32.553,15.302,33,14.75,33z"
			/>
	</g>
	<g>
		<path fill="#FFFFFF" d="M20,33c-0.552,0-1-0.447-1-1V15c0-0.552,0.448-1,1-1s1,0.448,1,1v17C21,32.553,20.552,33,20,33z"/>
	</g>
	<g>
		<path fill="#FFFFFF" d="M25.25,33c-0.553,0-1-0.447-1-1V15c0-0.552,0.447-1,1-1s1,0.448,1,1v17C26.25,32.553,25.803,33,25.25,33z"
			/>
	</g>
</g>
</svg>
