<?xml version="1.0" encoding="utf-8"?>
<!-- Generator: Adobe Illustrator 22.0.1, SVG Export Plug-In . SVG Version: 6.00 Build 0)  -->
<svg version="1.1" id="圖層_1" xmlns="http://www.w3.org/2000/svg" xmlns:xlink="http://www.w3.org/1999/xlink" x="0px" y="0px"
	 viewBox="0 0 40 40" enable-background="new 0 0 40 40" xml:space="preserve">
<g>
	<g>
		<path fill="#4D4D4D" d="M11.996,33.68c-0.171,0-0.342-0.045-0.496-0.133c-0.307-0.174-0.498-0.498-0.504-0.854l-0.1-5.832
			c-0.003-0.186,0.044-0.367,0.138-0.527L22.02,7.064c0.391-0.689,1.354-0.955,2.043-0.559l4.284,2.442
			c0.348,0.199,0.597,0.52,0.702,0.905c0.105,0.387,0.055,0.791-0.144,1.138L17.934,30.238c-0.089,0.156-0.254,0.348-0.409,0.436
			l-5.032,2.873C12.338,33.635,12.167,33.68,11.996,33.68z M12.901,27.098l0.069,3.875l3.324-1.899L26.92,10.436l-3.411-1.944
			L12.901,27.098z"/>
	</g>
	<g>
		<path fill="#4D4D4D" d="M25.261,15.367c-0.075,0.133-0.245,0.179-0.378,0.104l-4.668-2.661c-0.133-0.076-0.179-0.245-0.104-0.377
			l0.629-1.103c0.075-0.133,0.245-0.18,0.378-0.103l4.668,2.661c0.133,0.076,0.179,0.245,0.104,0.378L25.261,15.367z"/>
	</g>
</g>
</svg>
