<?xml version="1.0" encoding="utf-8"?>
<!-- Generator: Adobe Illustrator 22.0.1, SVG Export Plug-In . SVG Version: 6.00 Build 0)  -->
<svg version="1.1" id="圖層_1" xmlns="http://www.w3.org/2000/svg" xmlns:xlink="http://www.w3.org/1999/xlink" x="0px" y="0px"
	 viewBox="0 0 30 30" enable-background="new 0 0 30 30" xml:space="preserve">
<g>
	<path fill="#15E38A" d="M17.358,8.482H6.8c-0.552,0-1-0.448-1-1s0.448-1,1-1h10.559c0.553,0,1,0.448,1,1S17.911,8.482,17.358,8.482
		z"/>
</g>
<g>
	<path fill="#15E38A" d="M17.401,13.226H6.758c-0.552,0-1-0.448-1-1s0.448-1,1-1h10.644c0.553,0,1,0.448,1,1
		S17.954,13.226,17.401,13.226z"/>
</g>
<g>
	<path fill="#15E38A" d="M16.292,17.673H6.758c-0.552,0-1-0.447-1-1s0.448-1,1-1h9.534c0.553,0,1,0.447,1,1
		S16.845,17.673,16.292,17.673z"/>
</g>
<g>
	<path fill="#15E38A" d="M17.401,22.418H6.758c-0.552,0-1-0.447-1-1s0.448-1,1-1h10.644c0.553,0,1,0.447,1,1
		S17.954,22.418,17.401,22.418z"/>
</g>
<g>
	<path fill="#15E38A" d="M15.165,28.979c-0.017,0-0.034,0-0.051-0.001c-1.401-0.035-2.218-1.556-2.307-1.729
		c-0.329-0.568-0.553-0.641-0.555-0.642c-0.122,0.029-0.433,0.392-0.561,0.642c-0.681,1.185-1.461,1.766-2.373,1.729
		c-1.4-0.035-2.215-1.557-2.304-1.73c-0.291-0.504-0.523-0.635-0.568-0.64c-0.125,0.001-0.471,0.327-0.666,0.672
		c-0.558,0.971-1.182,1.509-1.914,1.659c-0.409,0.084-1.044,0.075-1.737-0.445C1.385,27.936,0.94,27.015,0.94,26.03V2.654
		c0-0.182,0.007-0.38,0.039-0.538c0.135-0.671,0.659-0.972,1.118-0.972h19.962c0.788,0,1.338,0.795,1.338,1.509v3.004
		c0,0.552-0.447,1-1,1s-1-0.448-1-1V3.145H2.941V26.03c0,0.358,0.146,0.682,0.389,0.864c0.084,0.063,0.136,0.082,0.151,0.085
		c-0.003-0.004,0.216-0.087,0.56-0.685C4.126,26.14,5,24.623,6.428,24.608c0.88-0.017,1.696,0.559,2.345,1.688
		c0.185,0.351,0.482,0.658,0.603,0.684c-0.004-0.005,0.217-0.092,0.559-0.685c0.064-0.129,0.881-1.65,2.282-1.686
		c0.888-0.05,1.691,0.545,2.348,1.686c0.186,0.352,0.484,0.66,0.605,0.685c-0.003-0.004,0.218-0.09,0.56-0.685
		c0.068-0.133,0.893-1.654,2.298-1.686c0.902-0.036,1.693,0.547,2.348,1.686c0.215,0.321,0.599,0.653,0.758,0.683
		c0.003-0.007,0.029-0.026,0.067-0.068c0.126-0.137,0.198-0.351,0.198-0.586V14.872c0-0.552,0.447-1,1-1s1,0.448,1,1v11.451
		c0,0.742-0.258,1.431-0.727,1.94c-0.602,0.653-1.248,0.749-1.696,0.708c-1.255-0.105-2.141-1.38-2.306-1.634
		c-0.382-0.66-0.606-0.729-0.608-0.73c-0.105,0.022-0.411,0.332-0.58,0.65C16.818,28.411,16.045,28.979,15.165,28.979z"/>
</g>
<g>
	<path fill="#15E38A" d="M16.477,21.665c-0.171,0-0.343-0.044-0.496-0.132c-0.307-0.176-0.499-0.5-0.504-0.854l-0.074-4.376
		c-0.003-0.182,0.043-0.361,0.134-0.519l8.249-14.471c0.367-0.637,1.24-0.874,1.874-0.512l3.217,1.833
		c0.319,0.182,0.548,0.478,0.645,0.833s0.049,0.725-0.134,1.043L21.15,18.957c-0.089,0.156-0.244,0.333-0.4,0.421l-3.778,2.155
		C16.818,21.621,16.647,21.665,16.477,21.665z M17.407,16.54l0.045,2.417l2.069-1.181L27.34,4.061l-2.128-1.212L17.407,16.54z"/>
</g>
<g>
	
		<rect x="23.928" y="3.863" transform="matrix(0.4952 -0.8688 0.8688 0.4952 7.4755 24.6247)" fill="#15E38A" width="2" height="4.033"/>
</g>
</svg>
