<?xml version="1.0" encoding="utf-8"?>
<!-- Generator: Adobe Illustrator 16.0.0, SVG Export Plug-In . SVG Version: 6.00 Build 0)  -->
<!DOCTYPE svg PUBLIC "-//W3C//DTD SVG 1.1//EN" "http://www.w3.org/Graphics/SVG/1.1/DTD/svg11.dtd">
<svg version="1.1" id="圖層_1" xmlns="http://www.w3.org/2000/svg" xmlns:xlink="http://www.w3.org/1999/xlink" x="0px" y="0px"
	 width="30px" height="30px" viewBox="0 0 30 30" enable-background="new 0 0 30 30" xml:space="preserve">
<g>
	<g>
		<path fill="#4D4D4D" d="M20.646,7.599H9.08c-0.538,0-0.974-0.436-0.974-0.974S8.542,5.651,9.08,5.651h11.565
			c0.538,0,0.974,0.436,0.974,0.974S21.184,7.599,20.646,7.599z"/>
	</g>
	<g>
		<path fill="#4D4D4D" d="M20.549,12.617H9.177c-0.538,0-0.975-0.436-0.975-0.974s0.437-0.974,0.975-0.974h11.372
			c0.538,0,0.974,0.436,0.974,0.974S21.087,12.617,20.549,12.617z"/>
	</g>
	<g>
		<path fill="#4D4D4D" d="M20.549,17.637H9.177c-0.538,0-0.975-0.436-0.975-0.975c0-0.537,0.437-0.973,0.975-0.973h11.372
			c0.538,0,0.974,0.436,0.974,0.973C21.522,17.201,21.087,17.637,20.549,17.637z"/>
	</g>
	<g>
		<path fill="#4D4D4D" d="M20.549,22.654H9.177c-0.538,0-0.975-0.436-0.975-0.975c0-0.537,0.437-0.973,0.975-0.973h11.372
			c0.538,0,0.974,0.436,0.974,0.973C21.522,22.219,21.087,22.654,20.549,22.654z"/>
	</g>
	<g>
		<path fill="#4D4D4D" d="M24.489,29.682c-1.469,0-2.394-1.588-2.494-1.768c-0.359-0.623-0.627-0.766-0.691-0.766
			c-0.172,0-0.564,0.426-0.731,0.744c-0.688,1.197-1.488,1.787-2.396,1.787c-1.473,0-2.345-1.609-2.439-1.793
			c-0.351-0.607-0.615-0.738-0.666-0.738c-0.148,0-0.528,0.398-0.701,0.736c-0.692,1.205-1.491,1.795-2.397,1.795
			c-1.472,0-2.338-1.613-2.432-1.797c-0.345-0.596-0.619-0.734-0.694-0.734c-0.202,0-0.602,0.418-0.798,0.766
			c-0.677,1.176-1.48,1.766-2.396,1.766c-0.451,0-0.893-0.148-1.313-0.443c-0.809-0.564-1.29-1.52-1.29-2.553V1.648
			c0-1.266,0.958-1.33,1.149-1.33h21.328c0.688,0,1.425,0.535,1.425,1.33v25.174c0,0.922-0.384,1.766-1.054,2.32
			C25.473,29.494,24.985,29.682,24.489,29.682z M21.304,25.199c0.913,0,1.716,0.59,2.386,1.754c0.223,0.391,0.624,0.779,0.8,0.779
			c0.027,0,0.085-0.023,0.167-0.092c0.218-0.18,0.348-0.484,0.348-0.818V2.267H4.998L4.997,26.684c0,0.398,0.171,0.756,0.459,0.957
			c0.096,0.068,0.166,0.092,0.196,0.092c0.065,0,0.335-0.143,0.701-0.779c0.091-0.164,1.009-1.754,2.492-1.754
			c0.927,0,1.735,0.59,2.405,1.756c0.221,0.418,0.584,0.777,0.721,0.777c0.05,0,0.315-0.133,0.687-0.777
			c0.072-0.143,0.94-1.756,2.412-1.756c0.907,0,1.706,0.59,2.376,1.756c0.222,0.418,0.591,0.777,0.729,0.777
			c0.052,0,0.319-0.133,0.691-0.777C18.943,26.805,19.828,25.199,21.304,25.199z"/>
	</g>
</g>
</svg>
