<?xml version="1.0" encoding="utf-8"?>
<!-- Generator: Adobe Illustrator 16.0.0, SVG Export Plug-In . SVG Version: 6.00 Build 0)  -->
<!DOCTYPE svg PUBLIC "-//W3C//DTD SVG 1.1//EN" "http://www.w3.org/Graphics/SVG/1.1/DTD/svg11.dtd">
<svg version="1.1" id="圖層_1" xmlns="http://www.w3.org/2000/svg" xmlns:xlink="http://www.w3.org/1999/xlink" x="0px" y="0px"
	 width="40px" height="40px" viewBox="0 0 40 40" enable-background="new 0 0 40 40" xml:space="preserve">
<g>
	<path fill="#4D4D4D" d="M28.807,39.482H11.012c-0.833,0-1.511-0.678-1.511-1.512V28.97c0-0.834,0.678-1.512,1.511-1.512h17.794
		c0.833,0,1.511,0.678,1.511,1.512v9.001C30.317,38.805,29.64,39.482,28.807,39.482z M11.483,37.498h16.849v-8.057H11.483V37.498z"
		/>
</g>
<g>
	<path fill="#4D4D4D" d="M21.691,39.482h-2.728c-0.833,0-1.511-0.678-1.511-1.512V28.97c0-0.834,0.679-1.512,1.511-1.512h2.728
		c0.833,0,1.51,0.678,1.51,1.512v9.001C23.201,38.805,22.524,39.482,21.691,39.482z M19.436,37.498h1.783v-8.057h-1.783V37.498z"/>
</g>
<g>
	<path fill="#4D4D4D" d="M9.716,18.861c-0.619,0-1.186-0.389-1.409-0.968l-1.12-2.911c-0.145-0.375-0.135-0.785,0.029-1.154
		c0.164-0.37,0.461-0.653,0.838-0.798l18.907-7.28c0.766-0.292,1.664,0.114,1.954,0.865l1.121,2.912
		c0.145,0.371,0.136,0.782-0.027,1.151c-0.163,0.371-0.462,0.655-0.839,0.802l-18.91,7.279C10.089,18.826,9.905,18.861,9.716,18.861
		z M9.208,14.711l0.78,2.028l18.028-6.94l-0.781-2.03L9.208,14.711z"/>
</g>
<g>
	<path fill="#4D4D4D" d="M17.958,15.687c-0.622,0-1.188-0.39-1.409-0.971l-1.12-2.906c-0.298-0.776,0.09-1.651,0.863-1.953
		l2.428-0.934c0.758-0.291,1.664,0.115,1.953,0.868l1.119,2.908c0.299,0.777-0.09,1.652-0.864,1.953l-2.427,0.933
		C18.329,15.652,18.146,15.687,17.958,15.687z M17.45,11.538l0.782,2.028l1.542-0.593l-0.782-2.029L17.45,11.538z"/>
</g>
<g>
	<path fill="#4D4D4D" d="M16.784,11.168c-1.206,0-2.263-0.721-2.691-1.836c-0.277-0.719-0.253-1.504,0.068-2.211
		c0.318-0.7,0.891-1.239,1.612-1.516c1.475-0.569,3.189,0.19,3.745,1.639c0.274,0.709,0.254,1.486-0.056,2.187
		c-0.317,0.712-0.893,1.259-1.624,1.54C17.5,11.102,17.145,11.168,16.784,11.168z M16.826,7.392c-0.116,0-0.23,0.021-0.342,0.063
		c-0.232,0.091-0.416,0.263-0.518,0.487c-0.1,0.218-0.107,0.458-0.023,0.678c0.173,0.45,0.711,0.68,1.183,0.501
		c0.237-0.091,0.422-0.266,0.523-0.494c0.095-0.216,0.102-0.454,0.019-0.67C17.535,7.613,17.205,7.392,16.826,7.392z"/>
</g>
<g>
	<g>
		<path fill="#4D4D4D" d="M12.25,10.951c-0.403,0-0.807-0.059-1.203-0.172c-0.988-0.286-1.825-0.897-2.355-1.722
			C8.135,8.188,7.979,7.192,8.25,6.251c0.433-1.5,1.871-2.51,3.578-2.51c0.404,0,0.81,0.059,1.203,0.172
			c0.989,0.286,1.826,0.897,2.356,1.723c0.558,0.868,0.715,1.864,0.443,2.807C15.396,9.943,13.958,10.951,12.25,10.951z
			 M11.829,5.725c-0.815,0-1.487,0.433-1.672,1.077c-0.112,0.385-0.039,0.805,0.205,1.183c0.27,0.421,0.71,0.737,1.237,0.889
			c1.023,0.297,2.091-0.167,2.327-0.981c0.111-0.385,0.038-0.806-0.205-1.184c-0.272-0.421-0.711-0.738-1.238-0.89
			C12.267,5.756,12.046,5.725,11.829,5.725z"/>
	</g>
	<g>
		<path fill="#4D4D4D" d="M11.262,11.946c-1.263,0-2.777-0.271-4.512-1.06c-0.499-0.226-0.72-0.814-0.494-1.312
			c0.226-0.499,0.816-0.718,1.313-0.494c4.356,1.978,6.762,0.024,6.786,0.003c0.419-0.351,1.045-0.297,1.396,0.123
			c0.352,0.419,0.298,1.044-0.122,1.397C15.537,10.681,13.985,11.946,11.262,11.946z"/>
	</g>
	<g>
		<path fill="#4D4D4D" d="M19.406,8.26C19.406,8.26,19.406,8.26,19.406,8.26c-0.625,0-1.23-0.17-1.751-0.492
			c-1.673-1.042-2.103-3.389-0.962-5.235c1.105-1.789,3.49-2.479,5.116-1.475c1.675,1.038,2.106,3.387,0.961,5.236
			C22.02,7.508,20.729,8.26,19.406,8.26z M20.056,2.547c-0.642,0-1.285,0.394-1.676,1.028c-0.568,0.919-0.425,2.044,0.32,2.508
			c0.721,0.446,1.833,0.057,2.384-0.833c0.57-0.92,0.426-2.044-0.319-2.507C20.555,2.614,20.316,2.547,20.056,2.547z"/>
	</g>
	<g>
		<path fill="#4D4D4D" d="M19.269,9.19c-0.531,0-0.97-0.42-0.99-0.956c-0.021-0.544,0.402-1.002,0.945-1.027
			c0.143-0.009,3.169-0.243,5.043-4.556c0.218-0.503,0.801-0.73,1.302-0.515c0.501,0.218,0.734,0.802,0.515,1.304
			c-2.399,5.523-6.6,5.741-6.777,5.748C19.294,9.19,19.282,9.19,19.269,9.19z"/>
	</g>
</g>
<path fill="#4D4D4D" d="M17.558,26.193c0,0-12.391-1.432-12.841-1.514c-0.451-0.084-0.749-0.515-0.666-0.964
	c0.083-0.454,0.515-0.753,0.966-0.67C5.466,23.129,17.558,26.193,17.558,26.193z"/>
<path fill="#4D4D4D" d="M16.945,23.224c0,0-4.523-3.317-4.733-3.503c-0.21-0.185-0.229-0.505-0.045-0.714
	c0.186-0.21,0.505-0.229,0.715-0.044C13.092,19.146,16.945,23.224,16.945,23.224z"/>
<path fill="#4D4D4D" d="M21.627,22.6c0,0,1.315-6.377,1.412-6.687c0.096-0.31,0.444-0.478,0.777-0.375
	c0.334,0.103,0.527,0.439,0.431,0.749C24.151,16.597,21.627,22.6,21.627,22.6z"/>
<path fill="#4D4D4D" d="M27.854,26.39c0,0,9.292-0.901,9.628-0.958c0.336-0.056,0.564-0.39,0.504-0.746s-0.383-0.599-0.72-0.541
	C36.93,24.201,27.854,26.39,27.854,26.39z"/>
<path fill="#4D4D4D" d="M25.075,23.759c0,0,7.181-3.882,7.52-4.107c0.339-0.225,0.432-0.683,0.207-1.022
	c-0.225-0.338-0.681-0.431-1.021-0.207C31.441,18.649,25.075,23.759,25.075,23.759z"/>
<polygon fill="#4D4D4D" points="5.754,19.787 5,19.075 3.988,19.293 4.431,18.356 3.911,17.461 4.938,17.593 5.628,16.821 
	5.821,17.839 6.768,18.258 5.86,18.755 "/>
<polygon fill="#4D4D4D" points="31.327,15.387 30.344,15.062 29.52,15.687 29.525,14.651 28.676,14.059 29.662,13.745 
	29.963,12.754 30.564,13.596 31.601,13.576 30.989,14.409 "/>
</svg>
