<?xml version="1.0" encoding="utf-8"?>
<!-- Generator: Adobe Illustrator 22.0.1, SVG Export Plug-In . SVG Version: 6.00 Build 0)  -->
<svg version="1.1" id="圖層_1" xmlns="http://www.w3.org/2000/svg" xmlns:xlink="http://www.w3.org/1999/xlink" x="0px" y="0px"
	 viewBox="0 0 30 30" enable-background="new 0 0 30 30" xml:space="preserve">
<g>
	<g>
		<g>
			<path fill="#15E38A" d="M24.413,29.756H6.232c-0.704,0-1.277-0.573-1.277-1.277v-9.037c0-0.703,0.573-1.275,1.277-1.275h18.181
				c0.704,0,1.277,0.572,1.277,1.275v9.037C25.69,29.183,25.117,29.756,24.413,29.756z M6.455,28.256H24.19v-8.59H6.455V28.256z"/>
		</g>
		<g>
			<path fill="#15E38A" d="M16.53,29.756h-2.729c-0.704,0-1.277-0.573-1.277-1.277v-9.037c0-0.703,0.573-1.275,1.277-1.275h2.729
				c0.704,0,1.277,0.572,1.277,1.275v9.037C17.808,29.183,17.234,29.756,16.53,29.756z M14.023,28.256h2.284v-8.59h-2.284
				C14.023,19.666,14.023,28.256,14.023,28.256z"/>
		</g>
	</g>
	<polygon fill="#15E38A" points="4.289,12.076 3.479,11.313 2.393,11.548 2.868,10.542 2.31,9.581 3.412,9.723 4.153,8.895 
		4.36,9.987 5.377,10.437 4.401,10.97 	"/>
	<polygon fill="#15E38A" points="27.396,9.524 26.341,9.174 25.454,9.845 25.46,8.732 24.548,8.097 25.608,7.761 25.931,6.696 
		26.577,7.601 27.69,7.578 27.03,8.474 	"/>
	<g>
		<g>
			<path fill="#15E38A" d="M3.844,4.847V0.994h2.13v0.51H4.438V2.64h1.424v0.51H4.438v1.187h1.627v0.511L3.844,4.847L3.844,4.847z"
				/>
			<path fill="#15E38A" d="M6.065,5.097H3.844c-0.138,0-0.25-0.112-0.25-0.25V0.994c0-0.138,0.112-0.25,0.25-0.25h2.13
				c0.138,0,0.25,0.112,0.25,0.25v0.51c0,0.138-0.112,0.25-0.25,0.25H4.688V2.39h1.174c0.138,0,0.25,0.112,0.25,0.25v0.51
				C6.112,3.288,6,3.4,5.862,3.4H4.688v0.687h1.377c0.138,0,0.25,0.112,0.25,0.25v0.511C6.315,4.985,6.204,5.097,6.065,5.097z
				 M4.094,4.597l1.722-0.011H4.438c-0.138,0-0.25-0.112-0.25-0.25V3.149c0-0.138,0.112-0.25,0.25-0.25l1.174-0.01H4.438
				c-0.138,0-0.25-0.112-0.25-0.25V1.504c0-0.138,0.112-0.25,0.25-0.25l1.285-0.01h-1.63L4.094,4.597L4.094,4.597z"/>
		</g>
		<g>
			<path fill="#15E38A" d="M10.938,4.847L9.182,2.285C8.959,1.94,8.837,1.742,8.813,1.69H8.791c0.016,0.105,0.022,0.298,0.022,0.577
				v2.579H8.231V0.994h0.714l1.336,1.971l0.749,1.133h0.016c-0.019-0.271-0.027-0.461-0.027-0.569V0.994h0.582v3.853H10.938z"/>
			<path fill="#15E38A" d="M11.601,5.097h-0.662c-0.083,0-0.16-0.041-0.206-0.108l-1.67-2.434v2.292c0,0.138-0.112,0.25-0.25,0.25
				H8.231c-0.138,0-0.25-0.112-0.25-0.25V0.994c0-0.138,0.112-0.25,0.25-0.25h0.714c0.083,0,0.161,0.041,0.207,0.11l1.616,2.395
				V0.994c0-0.138,0.112-0.25,0.25-0.25H11.6c0.138,0,0.25,0.112,0.25,0.25v3.853C11.851,4.985,11.739,5.097,11.601,5.097z
				 M11.07,4.597h0.28V1.244h-0.082v2.284c0,0.105,0.009,0.29,0.027,0.552c0.004,0.069-0.02,0.137-0.067,0.188
				c-0.1,0.108-0.302,0.098-0.396-0.017L11.07,4.597z M8.481,4.597h0.082V2.268c0-0.27-0.007-0.452-0.02-0.541
				c-0.011-0.072,0.01-0.145,0.058-0.2c0.112-0.13,0.369-0.095,0.439,0.06c0.006,0.012,0.052,0.1,0.351,0.562l1.411,2.057
				L8.813,1.244H8.481V4.597z"/>
		</g>
		<g>
			<path fill="#15E38A" d="M15.312,1.504v3.343h-0.598V1.504h-1.157v-0.51h2.917v0.51H15.312z"/>
			<path fill="#15E38A" d="M15.312,5.097h-0.598c-0.138,0-0.25-0.112-0.25-0.25V1.754h-0.907c-0.138,0-0.25-0.112-0.25-0.25v-0.51
				c0-0.138,0.112-0.25,0.25-0.25h2.917c0.138,0,0.25,0.112,0.25,0.25v0.51c0,0.138-0.112,0.25-0.25,0.25h-0.912v3.093
				C15.562,4.985,15.45,5.097,15.312,5.097z M14.964,4.597h0.098V1.504c0-0.138,0.112-0.25,0.25-0.25l0.912-0.01l-2.417,0.01h0.907
				c0.138,0,0.25,0.112,0.25,0.25C14.964,1.504,14.964,4.597,14.964,4.597z"/>
		</g>
		<g>
			<path fill="#15E38A" d="M19.134,4.847V0.994h2.131v0.51H19.73V2.64h1.424v0.51H19.73v1.187h1.627v0.511L19.134,4.847
				L19.134,4.847z"/>
			<path fill="#15E38A" d="M21.356,5.097h-2.223c-0.138,0-0.25-0.112-0.25-0.25V0.994c0-0.138,0.112-0.25,0.25-0.25h2.131
				c0.138,0,0.25,0.112,0.25,0.25v0.51c0,0.138-0.112,0.25-0.25,0.25h-1.285V2.39h1.174c0.138,0,0.25,0.112,0.25,0.25v0.51
				c0,0.138-0.112,0.25-0.25,0.25h-1.174v0.687h1.377c0.138,0,0.25,0.112,0.25,0.25v0.511C21.606,4.985,21.494,5.097,21.356,5.097z
				 M19.384,4.597l1.723-0.011H19.73c-0.138,0-0.25-0.112-0.25-0.25V3.149c0-0.138,0.112-0.25,0.25-0.25l1.174-0.01H19.73
				c-0.138,0-0.25-0.112-0.25-0.25V1.504c0-0.138,0.112-0.25,0.25-0.25l1.285-0.01h-1.631C19.384,1.244,19.384,4.597,19.384,4.597z"
				/>
		</g>
		<g>
			<path fill="#15E38A" d="M26.065,4.847l-0.498-1.103c-0.076-0.173-0.162-0.297-0.26-0.371S25.1,3.262,24.975,3.262h-0.373v1.585
				h-0.594V0.994h1.279c0.414,0,0.732,0.092,0.959,0.277c0.225,0.185,0.338,0.437,0.338,0.755c0,0.259-0.076,0.483-0.23,0.672
				c-0.152,0.189-0.367,0.32-0.645,0.394v0.013c0.166,0.063,0.311,0.226,0.432,0.488l0.619,1.254H26.065z M24.603,1.486v1.279h0.582
				c0.232,0,0.42-0.063,0.566-0.188c0.145-0.127,0.217-0.289,0.217-0.488c0-0.188-0.066-0.337-0.197-0.443
				c-0.133-0.106-0.32-0.159-0.566-0.159h-0.602V1.486z"/>
			<path fill="#15E38A" d="M26.773,5.097c-0.004,0-0.008,0-0.013,0h-0.695c-0.099,0-0.188-0.058-0.228-0.147L25.34,3.847
				c-0.075-0.169-0.141-0.243-0.184-0.275c-0.055-0.042-0.11-0.061-0.181-0.061h-0.123v1.335c0,0.138-0.112,0.25-0.25,0.25h-0.594
				c-0.138,0-0.25-0.112-0.25-0.25V0.994c0-0.138,0.112-0.25,0.25-0.25h1.279c0.471,0,0.847,0.112,1.117,0.334
				c0.285,0.234,0.43,0.553,0.43,0.948c0,0.318-0.097,0.598-0.287,0.83c-0.101,0.125-0.224,0.229-0.368,0.313
				c0.069,0.089,0.132,0.196,0.188,0.319l0.586,1.187c0.043,0.044,0.069,0.105,0.069,0.172C27.023,4.985,26.911,5.097,26.773,5.097z
				 M26.227,4.597h0.132l-0.441-0.893c-0.093-0.202-0.194-0.326-0.296-0.365c0.063,0.083,0.122,0.184,0.175,0.305L26.227,4.597z
				 M24.259,4.597h0.094V3.262c0-0.127,0.096-0.232,0.219-0.248c-0.123-0.016-0.219-0.121-0.219-0.248v-1.28
				c0-0.117,0.08-0.214,0.188-0.242H24.26L24.259,4.597L24.259,4.597z M25.392,1.247c0.217,0.024,0.396,0.092,0.535,0.204
				c0.19,0.155,0.291,0.375,0.291,0.638c0,0.241-0.084,0.454-0.244,0.621c0.072-0.047,0.134-0.103,0.187-0.168
				c0.118-0.145,0.175-0.313,0.175-0.515c0-0.242-0.081-0.425-0.247-0.562C25.928,1.333,25.693,1.26,25.392,1.247z M24.853,2.516
				h0.332c0.171,0,0.304-0.042,0.403-0.128c0.089-0.079,0.13-0.171,0.13-0.299c0-0.146-0.056-0.209-0.105-0.25
				c-0.084-0.068-0.223-0.103-0.408-0.103h-0.352C24.853,1.736,24.853,2.516,24.853,2.516z"/>
		</g>
	</g>
	<g>
		<path fill="#15E38A" d="M5.029,19.664c-0.699,0-1.272-0.57-1.277-1.271l-0.019-3.165c-0.002-0.707,0.568-1.281,1.272-1.284
			l20.562-0.118c0.707,0,1.28,0.569,1.285,1.27l0.018,3.165c0.005,0.703-0.565,1.28-1.271,1.285L5.037,19.664
			C5.035,19.664,5.03,19.664,5.029,19.664z M5.235,15.444l0.016,2.719l20.119-0.115l-0.016-2.719L5.235,15.444z"/>
	</g>
	<g>
		<path fill="#15E38A" d="M13.995,19.613c-0.701,0-1.275-0.57-1.28-1.271l-0.018-3.165c-0.002-0.341,0.128-0.663,0.368-0.906
			s0.56-0.377,0.901-0.38l2.638-0.015c0.704,0,1.278,0.57,1.283,1.271l0.018,3.164c0.002,0.34-0.128,0.661-0.366,0.903
			c-0.239,0.244-0.56,0.38-0.902,0.382L14,19.613C13.998,19.613,13.997,19.613,13.995,19.613z M14.198,15.391l0.015,2.721
			l2.191-0.014l-0.016-2.719L14.198,15.391z"/>
	</g>
	<g>
		<path fill="#15E38A" d="M15.304,14.927c-1.441,0-2.621-1.158-2.63-2.581c-0.007-1.432,1.166-2.602,2.614-2.61
			c1.455,0,2.633,1.157,2.641,2.58c0.008,1.429-1.162,2.601-2.609,2.612C15.317,14.927,15.306,14.927,15.304,14.927z M15.303,11.235
			c-0.629,0.003-1.132,0.498-1.129,1.102c0.004,0.6,0.511,1.089,1.13,1.089v0.75l0.006-0.75c0.619-0.005,1.123-0.5,1.119-1.103
			C16.425,11.724,15.92,11.235,15.303,11.235z"/>
	</g>
	<g>
		<path fill="#15E38A" d="M11.522,13.263c-0.838,0-1.687-0.289-2.389-0.814c-0.786-0.589-1.326-1.417-1.52-2.33
			C7.412,9.168,7.604,8.24,8.156,7.504C8.758,6.7,9.717,6.239,10.788,6.239c0.838,0,1.687,0.29,2.388,0.815
			c0.786,0.588,1.326,1.416,1.521,2.329c0.202,0.95,0.01,1.879-0.542,2.616C13.552,12.802,12.592,13.263,11.522,13.263z
			 M10.788,7.739c-0.593,0-1.115,0.242-1.432,0.665C9.068,8.789,8.97,9.287,9.081,9.808c0.118,0.558,0.456,1.069,0.951,1.44
			c0.953,0.713,2.331,0.64,2.922-0.148c0.288-0.385,0.386-0.883,0.275-1.404c-0.119-0.558-0.457-1.069-0.953-1.44
			C11.832,7.922,11.304,7.739,10.788,7.739z"/>
	</g>
	<g>
		<path fill="#15E38A" d="M19.072,13.22L19.072,13.22c-1.053,0-2.002-0.451-2.604-1.236c-0.56-0.728-0.763-1.654-0.572-2.607
			c0.184-0.915,0.714-1.748,1.492-2.346c0.709-0.543,1.569-0.843,2.423-0.843c1.053,0,2.002,0.45,2.604,1.235
			c0.56,0.729,0.764,1.655,0.572,2.608c-0.184,0.916-0.714,1.749-1.494,2.347C20.784,12.92,19.925,13.22,19.072,13.22z
			 M19.811,7.688c-0.525,0-1.062,0.189-1.51,0.533c-0.49,0.376-0.822,0.892-0.935,1.451c-0.104,0.521-0.001,1.018,0.292,1.398
			c0.316,0.414,0.831,0.65,1.414,0.65l0,0c0.524,0,1.06-0.189,1.508-0.533c0.491-0.377,0.823-0.892,0.936-1.452
			c0.104-0.521,0.001-1.019-0.291-1.4C20.908,7.924,20.393,7.688,19.811,7.688z"/>
	</g>
	<g>
		<path fill="#15E38A" d="M8.29,14.455c-0.75,0-1.518-0.145-2.29-0.54c-0.369-0.189-0.515-0.641-0.326-1.009
			c0.189-0.369,0.642-0.515,1.009-0.326c1.37,0.702,2.74,0.301,4.329-0.161c0.755-0.22,1.537-0.448,2.341-0.549
			c0.415-0.051,0.786,0.239,0.838,0.65c0.052,0.411-0.239,0.786-0.65,0.838c-0.686,0.086-1.377,0.288-2.109,0.501
			C10.449,14.145,9.387,14.455,8.29,14.455z"/>
	</g>
	<g>
		<path fill="#15E38A" d="M22.536,14.455c-1.099,0-2.16-0.31-3.144-0.596c-0.731-0.213-1.422-0.415-2.106-0.501
			c-0.411-0.052-0.702-0.427-0.65-0.838c0.052-0.412,0.433-0.701,0.838-0.65c0.803,0.102,1.584,0.329,2.339,0.549
			c1.589,0.463,2.96,0.864,4.331,0.162c0.371-0.19,0.821-0.042,1.01,0.326c0.188,0.369,0.043,0.821-0.326,1.009
			C24.055,14.31,23.287,14.455,22.536,14.455z"/>
	</g>
</g>
</svg>
