<?xml version="1.0" encoding="utf-8"?>
<!-- Generator: Adobe Illustrator 22.0.1, SVG Export Plug-In . SVG Version: 6.00 Build 0)  -->
<svg version="1.1" id="圖層_1" xmlns="http://www.w3.org/2000/svg" xmlns:xlink="http://www.w3.org/1999/xlink" x="0px" y="0px"
	 viewBox="0 0 40 40" style="enable-background:new 0 0 40 40;" xml:space="preserve">
<style type="text/css">
	.st0{display:none;}
	.st1{fill:#15E38A;}
</style>
<g id="圖層_1_1_">
</g>
<g id="圖層_3">
	<g id="RyzE3t.tif" class="st0">
		
			<image style="display:inline;overflow:visible;enable-background:new    ;" width="518" height="518" id="Layer_0_1_" xlink:href="DF972A86295ADF7F.png"  transform="matrix(7.442780e-02 0 0 7.442780e-02 -2 1)">
		</image>
	</g>
	<g>
		<path class="st1" d="M23.3,33.7H9.7C7.7,33.7,6,32,6,30V10c0-2,1.7-3.7,3.7-3.7h13.6c2,0,3.7,1.7,3.7,3.7v2.3c0,0.6-0.4,1-1,1
			s-1-0.4-1-1V10c0-0.9-0.8-1.7-1.7-1.7H9.7C8.8,8.3,8,9.1,8,10V30c0,0.9,0.8,1.7,1.7,1.7h13.6c0.9,0,1.7-0.8,1.7-1.7v-2.3
			c0-0.6,0.4-1,1-1s1,0.4,1,1V30C27,32,25.3,33.7,23.3,33.7z"/>
	</g>
	<g>
		<path class="st1" d="M33,21H18c-0.6,0-1-0.4-1-1s0.4-1,1-1h15c0.6,0,1,0.4,1,1S33.6,21,33,21z"/>
	</g>
	<g>
		<path class="st1" d="M29.8,25c-0.3,0-0.5-0.1-0.7-0.3c-0.4-0.4-0.4-1,0-1.4l2.7-2.7c0.2-0.2,0.3-0.4,0.3-0.6s-0.1-0.5-0.3-0.6
			l-2.7-2.7c-0.4-0.4-0.4-1,0-1.4s1-0.4,1.4,0l2.7,2.7c0.5,0.5,0.8,1.3,0.8,2s-0.3,1.5-0.8,2l-2.7,2.7C30.3,24.9,30,25,29.8,25z"/>
	</g>
</g>
</svg>
