<?xml version="1.0" encoding="utf-8"?>
<!-- Generator: Adobe Illustrator 22.0.1, SVG Export Plug-In . SVG Version: 6.00 Build 0)  -->
<svg version="1.1" id="圖層_1" xmlns="http://www.w3.org/2000/svg" xmlns:xlink="http://www.w3.org/1999/xlink" x="0px" y="0px"
	 viewBox="0 0 40 40" enable-background="new 0 0 40 40" xml:space="preserve">
<g>
	<g>
		<path fill="#15E38A" d="M20,23.693c-6.257,0-11.347-5.09-11.347-11.346C8.653,6.09,13.743,1,20,1
			c6.256,0,11.346,5.09,11.346,11.347C31.346,18.603,26.256,23.693,20,23.693z M20,3.944c-4.634,0-8.403,3.77-8.403,8.403
			S15.367,20.75,20,20.75s8.403-3.77,8.403-8.403C28.403,7.713,24.634,3.944,20,3.944z"/>
	</g>
	<g>
		<path fill="#15E38A" d="M35.306,39c-0.813,0-1.472-0.659-1.472-1.472c0-7.628-6.207-13.835-13.835-13.835S6.164,29.9,6.164,37.528
			C6.165,38.341,5.507,39,4.694,39s-1.472-0.659-1.472-1.472c0-9.251,7.527-16.778,16.778-16.778s16.778,7.527,16.778,16.778
			C36.778,38.341,36.119,39,35.306,39z"/>
	</g>
</g>
</svg>
